<?xml version="1.0" encoding="UTF-8"?>
<svg version="1.1" xmlns="http://www.w3.org/2000/svg" width="1514" height="1290">
<path d="M0 0 C1.52243302 -0.00087335 3.04486573 -0.00262669 4.56729686 -0.00517833 C8.72911991 -0.00963054 12.89083918 -0.00167758 17.05264902 0.00837779 C21.54876598 0.01704078 26.04487741 0.01409012 30.54100037 0.01257324 C38.32365421 0.01152619 46.10627444 0.01778399 53.88891983 0.02904892 C65.14121774 0.04532535 76.39349944 0.05051412 87.64580785 0.0530249 C105.90335661 0.05739864 124.16088747 0.07069904 142.41842651 0.08963013 C160.15052196 0.10799723 177.88261253 0.12214967 195.61471558 0.13064575 C197.25511579 0.13143392 197.25511579 0.13143392 198.9286554 0.13223802 C204.41510318 0.13484815 209.90155099 0.13737555 215.38799882 0.13986182 C260.88025014 0.16058433 306.37248193 0.19580112 351.86471558 0.24050903 C351.86471558 0.57050903 351.86471558 0.90050903 351.86471558 1.24050903 C351.00491089 1.39906372 350.1451062 1.55761841 349.25924683 1.72097778 C336.32741278 4.27349901 325.35609009 8.03496472 314.86471558 16.24050903 C313.85409058 17.00363403 312.84346558 17.76675903 311.80221558 18.55300903 C309.77519404 20.10226059 309.77519404 20.10226059 308.86471558 22.24050903 C308.20471558 22.24050903 307.54471558 22.24050903 306.86471558 22.24050903 C306.59957153 22.8080188 306.33442749 23.37552856 306.06124878 23.9602356 C304.79075007 26.38146757 303.29337205 28.48897818 301.72018433 30.72488403 C296.4179438 39.02356743 293.47317895 48.26121189 290.17721558 57.49050903 C289.44049843 59.52180177 288.70250956 61.55263366 287.96334839 63.58303833 C286.3934225 67.90230869 284.83127544 72.22427765 283.27536011 76.5486145 C280.88071269 83.20246344 278.46701217 89.84927823 276.04830933 96.49441528 C275.23132245 98.73928434 274.41434661 100.98415741 273.59738159 103.22903442 C272.98505173 104.91151779 272.98505173 104.91151779 272.36035156 106.62799072 C271.10363903 110.08346525 269.8490099 113.5396898 268.59494019 116.99612427 C262.53155843 133.70223267 256.39840295 150.3818308 250.23971558 167.05300903 C243.3263681 185.76870898 236.50145771 204.51328514 229.76992798 223.29510498 C223.72844635 240.14520896 217.5704861 256.95026636 211.36471558 273.74050903 C204.72235909 291.71239616 198.14524725 309.70512633 191.67721558 327.74050903 C185.87006602 343.93263029 180.00011476 360.09954533 174.05221558 376.24050903 C167.45072596 394.15658667 160.91802942 412.09654002 154.42721558 430.05300903 C147.76516931 448.47901087 141.08919268 466.89968657 134.36471558 485.30300903 C133.98003113 486.35588104 133.59534668 487.40875305 133.19900513 488.49353027 C128.69973804 500.80319862 124.1810297 513.10558123 119.64205933 525.40066528 C118.98368576 527.18414116 118.98368576 527.18414116 118.31201172 529.00364685 C117.8717868 530.19612534 117.43156189 531.38860382 116.97799683 532.61721802 C116.08605878 535.03331097 115.1941317 537.44940798 114.30221558 539.86550903 C113.86071167 541.06136627 113.41920776 542.25722351 112.96432495 543.48931885 C106.47982514 561.06045604 100.08945239 578.66310726 93.77020264 596.29428101 C87.29271938 614.36046126 80.67513402 632.37284472 74.02145386 650.37478638 C67.88998951 666.96882961 61.83308589 683.58713128 55.86471558 700.24050903 C49.46057854 718.10979457 42.94553257 735.93554609 36.36471558 753.74050903 C29.72235862 771.71239742 23.14535501 789.70516426 16.67721558 807.74050903 C10.48637898 825.00127983 4.21869577 842.23162998 -2.11929321 859.43890381 C-8.31227671 876.25351081 -14.45490444 893.08593479 -20.57278442 909.92800903 C-21.42324188 912.2682768 -22.27374574 914.60852771 -23.1242981 916.94876099 C-24.73151553 921.37102846 -26.33870979 925.79330435 -27.9458313 930.21560669 C-28.3158728 931.23382507 -28.68591431 932.25204346 -29.06716919 933.30111694 C-29.75462635 935.19295976 -30.4419725 937.08484293 -31.12918091 938.97677612 C-32.78997161 943.54892297 -34.45275578 948.12032567 -36.1206665 952.68988037 C-36.80057638 954.55460125 -37.4776226 956.4203655 -38.15457153 958.28616333 C-38.54394897 959.35133179 -38.93332642 960.41650024 -39.33450317 961.51394653 C-39.66281128 962.41548462 -39.99111938 963.31702271 -40.32937622 964.24588013 C-41.13528442 966.24050903 -41.13528442 966.24050903 -42.13528442 967.24050903 C-44.06396481 967.33820975 -45.99628449 967.36422209 -47.92743778 967.36355686 C-49.82713325 967.36654343 -49.82713325 967.36654343 -51.7652064 967.36959034 C-53.18894535 967.36673675 -54.61268413 967.36379114 -56.03642273 967.36076355 C-57.5345885 967.36119912 -59.0327542 967.36207376 -60.53091949 967.36335272 C-64.66744107 967.36560047 -68.80393701 967.36157258 -72.94045532 967.35657465 C-77.39378542 967.35227434 -81.84711396 967.35371628 -86.30044556 967.35447693 C-94.02267871 967.35500243 -101.74490344 967.3518529 -109.46713448 967.34623909 C-120.63231858 967.33812763 -131.7974986 967.33550923 -142.96268534 967.3342511 C-161.07547784 967.33206002 -179.18826585 967.32539842 -197.30105591 967.31594849 C-214.90066505 967.30677581 -232.50027298 967.29969427 -250.09988403 967.29544067 C-251.1839007 967.29517795 -252.26791738 967.29491523 -253.38478304 967.29464454 C-258.82273026 967.29333955 -264.26067749 967.29207583 -269.69862473 967.29083264 C-314.84418107 967.28045829 -359.98973252 967.26283846 -405.13528442 967.24050903 C-404.45197492 963.67778472 -403.56867332 960.39240603 -402.33547974 956.97781372 C-401.96205444 955.93866318 -401.58862915 954.89951263 -401.20388794 953.82887268 C-400.79453003 952.70143143 -400.38517212 951.57399017 -399.96340942 950.41238403 C-399.53374878 949.2208522 -399.10408813 948.02932037 -398.66140747 946.80168152 C-397.48628776 943.543946 -396.30641289 940.28795144 -395.12547302 937.03232193 C-394.38215171 934.98186743 -393.64024788 932.93090574 -392.89883423 930.87976074 C-385.37074089 910.05351276 -377.74711477 889.26352122 -370.06900024 868.49209595 C-364.01125589 852.10296613 -358.03053946 835.68876806 -352.13528442 819.24050903 C-345.81302555 801.60087325 -339.38315238 784.0036977 -332.88528442 766.42800903 C-325.54195967 746.56500629 -318.29867003 726.66887025 -311.13528442 706.74050903 C-303.94947025 686.7503067 -296.68579813 666.79135709 -289.32278442 646.86550903 C-282.93314438 629.5730394 -276.58103831 612.26850076 -270.32278442 594.92800903 C-269.97519073 593.96493835 -269.62759705 593.00186768 -269.26947021 592.00961304 C-267.89047693 588.18827147 -266.51173886 584.36683797 -265.13340759 580.54525757 C-261.60745471 570.77152069 -258.06192531 561.00493676 -254.51028442 551.24050903 C-254.03069275 549.92191895 -254.03069275 549.92191895 -253.54141235 548.57669067 C-242.45117533 518.09129973 -231.3113897 487.62392169 -220.18118286 457.15310669 C-217.26969352 449.18237099 -214.35854682 441.21151022 -211.44778442 433.24050903 C-211.2084959 432.58524105 -210.96920738 431.92997307 -210.72266769 431.25484848 C-203.84552684 412.4220622 -196.98315955 393.58396052 -190.13528442 374.74050903 C-183.00107377 355.11126654 -175.8572967 335.48553634 -168.69778442 315.86550903 C-168.33580397 314.87344326 -168.33580397 314.87344326 -167.96651077 313.86133575 C-160.44879962 293.25901095 -152.87527298 272.6777831 -145.27618408 252.10531616 C-138.23836413 233.04290463 -131.31816986 213.93989168 -124.44417953 194.81801224 C-117.08511296 174.34711015 -109.62164809 153.91735333 -102.07659912 133.5140686 C-94.99832536 114.36893472 -88.03435738 95.1851232 -81.16946411 75.96243286 C-77.79575373 66.52733797 -74.37708443 57.11124835 -70.83840942 47.73660278 C-70.51716599 46.87851013 -70.19592255 46.02041748 -69.86494446 45.13632202 C-63.56749203 28.58662488 -52.94493908 14.03731122 -36.45169067 6.48269653 C-24.24432528 1.27152626 -13.25455197 -0.05683185 0 0 Z " fill="#0996C7" transform="translate(405.1352844238281,322.7594909667969)"/>
<path d="M0 0 C119.79 0 239.58 0 363 0 C362.27146558 4.37120653 361.5296101 7.70754439 360.06079102 11.77856445 C359.65779785 12.90315567 359.25480469 14.02774689 358.83959961 15.18641663 C358.3988208 16.39978195 357.95804199 17.61314728 357.50390625 18.86328125 C357.03865032 20.15503859 356.57381636 21.44694798 356.109375 22.73899841 C354.85987816 26.21063638 353.60381147 29.67986299 352.34630203 33.14860535 C351.29539378 36.04991799 350.24828807 38.95259687 349.2011404 41.85526848 C340.92643102 64.79008768 332.5373174 87.68245166 324.10455322 110.55958557 C320.47824118 120.40421368 316.89246817 130.26344312 313.3125 140.125 C306.8724732 157.86086234 300.41005839 175.58848953 293.9375 193.3125 C293.44625758 194.65773484 292.95501613 196.00297003 292.46377563 197.34820557 C290.47332693 202.79887059 288.48278324 208.24950092 286.49208069 213.70007324 C283.06826304 223.07454162 279.64515108 232.44926736 276.22265625 241.82421875 C275.98613846 242.47208847 275.74962067 243.11995819 275.50593567 243.78746033 C273.83726472 248.35829749 272.16862787 252.92914711 270.5 257.5 C268.592472 262.72526921 266.68492555 267.95053168 264.77734375 273.17578125 C264.54096695 273.82326828 264.30459015 274.47075531 264.06105042 275.13786316 C260.62652339 284.54569678 257.19114484 293.95321915 253.75531387 303.36057663 C251.5241976 309.46948597 249.29328013 315.57846791 247.0625 321.6875 C246.81932037 322.35345184 246.57614075 323.01940369 246.32559204 323.70553589 C239.89262703 341.32278114 233.46972867 358.94363865 227.06582642 376.57147217 C220.73197201 394.0052578 214.36919547 411.42844986 208.00531006 428.85128784 C200.98847903 448.06206867 193.98502763 467.27762627 187 486.5 C179.86592356 506.12929104 172.72203665 525.75498185 165.5625 545.375 C165.32176884 546.03475704 165.08103767 546.69451408 164.83301163 547.37426376 C157.22451323 568.22516915 149.56056857 589.05510455 141.87136841 609.87640381 C135.46058849 627.24281358 129.14656741 644.64165824 122.90036011 662.06787109 C116.94245406 678.68393193 110.87107808 695.25590573 104.75 711.8125 C96.29184253 734.69133849 87.96888287 757.6159973 79.72167969 780.5715332 C74.69736397 794.5524132 69.6257523 808.51472342 64.50257015 822.45968819 C64.27323567 823.08392614 64.0439012 823.7081641 63.80761719 824.35131836 C63.46234277 825.29109685 63.46234277 825.29109685 63.11009312 826.24986076 C60.47806565 833.41657735 57.8618185 840.58903952 55.24609375 847.76171875 C54.76305311 849.08593677 54.28000053 850.41015043 53.79693604 851.73435974 C51.85637445 857.05424419 49.91615476 862.37425313 47.97680664 867.69458008 C42.87591194 881.68732847 37.76452851 895.67597952 32.59765625 909.64453125 C32.20670273 910.70266525 31.81574921 911.76079926 31.41294861 912.85099792 C30.2817992 915.90314546 29.14336337 918.95240753 28 922 C27.34488182 923.74834641 27.34488182 923.74834641 26.67652893 925.53201294 C26.23687302 926.69248138 25.7972171 927.85294983 25.34423828 929.04858398 C24.94608917 930.10214584 24.54794006 931.1557077 24.13772583 932.24119568 C18.96964708 944.77296529 7.89351406 954.34848558 -3.9375 960.375 C-4.56922119 960.69694336 -5.20094238 961.01888672 -5.85180664 961.35058594 C-16.4664371 966.43785653 -26.59081514 967.4359474 -38.25553894 967.36076355 C-39.77883592 967.36207393 -41.30213223 967.36470463 -42.82542497 967.36853105 C-46.98503763 967.37520224 -51.14441619 967.36329009 -55.30399907 967.34819686 C-59.79941652 967.33519187 -64.2948217 967.33962911 -68.79025269 967.34190369 C-76.57017815 967.34347361 -84.35002789 967.33409386 -92.12993431 967.31719017 C-103.37823859 967.29276653 -114.62650641 967.28499146 -125.87483434 967.2812262 C-144.12629375 967.27466699 -162.37771285 967.25472023 -180.62915039 967.22631836 C-198.35440876 967.19876405 -216.07965616 967.17753718 -233.80493164 967.16479492 C-234.89826906 967.16400675 -235.99160648 967.16321858 -237.11807533 967.16240653 C-242.60325244 967.1584913 -248.08842962 967.1547002 -253.57360685 967.15097082 C-299.04909915 967.11989143 -344.52454749 967.06707009 -390 967 C-387.10571328 965.07047552 -385.37359639 964.4800238 -382.0625 963.6875 C-370.43771009 960.5936824 -358.51746103 955.93623673 -350.8125 946.25 C-350.214375 945.5075 -349.61625 944.765 -349 944 C-348.34 944 -347.68 944 -347 944 C-346.74605469 943.47277344 -346.49210938 942.94554687 -346.23046875 942.40234375 C-345.30545007 940.59635489 -344.31780362 938.82223108 -343.30078125 937.06640625 C-339.25400962 930.01200554 -336.15652411 923.01591834 -333.70703125 915.2578125 C-330.51640006 905.43474573 -327.02837376 895.75121543 -323.4095459 886.07894897 C-321.54772438 881.10030642 -319.69945644 876.11663815 -317.8515625 871.1328125 C-317.45952637 870.07569565 -317.06749023 869.0185788 -316.66357422 867.9294281 C-311.9541935 855.20805608 -307.35487289 842.44697991 -302.75 829.6875 C-295.59508864 809.8679582 -288.36524856 790.07801413 -281.0625 770.3125 C-274.96090035 753.79714115 -268.90611972 737.26819614 -262.98666382 720.68667603 C-258.19284342 707.26259704 -253.30031617 693.87635962 -248.375 680.5 C-241.9447819 663.03325381 -235.54588608 645.55553266 -229.1875 628.0625 C-228.77560425 626.92942413 -228.3637085 625.79634827 -227.93933105 624.62893677 C-223.13504965 611.41014115 -218.34197733 598.18730846 -213.55859375 584.9609375 C-213.10375575 583.70334332 -212.64891668 582.44574953 -212.19407654 581.18815613 C-211.96937085 580.56685475 -211.74466516 579.94555338 -211.51315022 579.30542469 C-210.3837834 576.18277713 -209.25439321 573.06013802 -208.125 569.9375 C-207.67909515 568.70452179 -207.23319031 567.47154358 -206.77377319 566.20120239 C-201.29463314 551.05407847 -195.781817 535.92061168 -190.19110107 520.81433105 C-184.63619729 505.79898537 -179.19126856 490.74433766 -173.75 475.6875 C-167.21593104 457.6067134 -160.64628078 439.53987838 -154 421.5 C-147.43820233 403.68880441 -140.95103157 385.85160444 -134.5 368 C-128.08651401 350.25415982 -121.64320892 332.52015727 -115.125 314.8125 C-108.32668751 296.34331627 -101.55865974 277.86328312 -94.8125 259.375 C-94.5716077 258.71484013 -94.33071541 258.05468025 -94.08252335 257.37451553 C-91.87291854 251.31909088 -89.66350903 245.26359498 -87.45439148 239.20799255 C-84.01342297 229.77589233 -80.5698858 220.34473265 -77.125 210.9140625 C-64.01342216 175.01852737 -50.93922786 139.10953493 -37.88964844 103.19140625 C-30.29974998 82.3012312 -22.70036757 61.41452524 -15.0798645 40.53549194 C-14.24637895 38.25146978 -13.41325894 35.96731419 -12.58053589 33.68301392 C-11.41548448 30.48748583 -10.2489425 27.29250557 -9.08203125 24.09765625 C-8.74307831 23.1671344 -8.40412537 22.23661255 -8.05490112 21.27789307 C-5.44913413 14.15121485 -2.72515151 7.08539392 0 0 Z " fill="#0996C7" transform="translate(1150,0)"/>
<path d="M0 0 C12.59332064 12.76702162 17.79520964 28.17652686 23.6875 44.75 C24.59315191 47.25665886 25.50017339 49.76278176 26.40893555 52.26831055 C28.57301146 58.24455137 30.718944 64.22713769 32.85788441 70.21241474 C35.30687592 77.06355807 37.77280641 83.90856105 40.2397728 90.75324821 C44.15603985 101.62043598 48.06157845 112.4914382 51.95889664 123.36543465 C56.5161896 136.08030873 61.09144459 148.78847574 65.70574951 161.48278809 C66.66980628 164.13875399 67.62944335 166.79628302 68.58837891 169.45410156 C71.31600128 176.99283473 74.08621612 184.50536072 77.04449463 191.95710754 C78.32612995 195.18624661 79.58760881 198.42312666 80.84954834 201.66000366 C81.71658146 203.85297507 82.61691734 206.02994865 83.52001953 208.20825195 C86.89585893 216.64880516 87.6289133 221.94846717 84.0625 230.375 C83.28401738 232.54600127 82.50818018 234.71795217 81.734375 236.890625 C81.02317249 238.78225128 80.31169693 240.67378163 79.59457397 242.56317139 C78.16702428 246.32670642 76.75779323 250.09710071 75.34765625 253.8671875 C75.02666458 254.72466583 74.70567291 255.58214417 74.37495422 256.46560669 C71.33314907 264.61074033 68.34844644 272.77646764 65.37109375 280.9453125 C65.12111507 281.63104843 64.8711364 282.31678436 64.61358261 283.02330017 C62.32532067 289.30122019 60.03900615 295.57984808 57.75549316 301.85949707 C56.31109611 305.83133734 54.86526848 309.80265401 53.41796875 313.7734375 C53.18575308 314.41067057 52.95353741 315.04790363 52.7142849 315.70444679 C49.43959514 324.68368876 46.08336029 333.62784227 42.6567688 342.55006409 C40.16754125 349.04847878 37.84838815 355.59323215 35.625 362.1875 C32.88703432 370.19299699 30.06729073 378.15332184 27.0625 386.0625 C22.64518623 397.70507096 18.41270623 409.41163966 14.1875 421.125 C7.89058747 438.57589801 1.5585289 456.01351654 -4.8125 473.4375 C-5.21724548 474.54446228 -5.62199097 475.65142456 -6.03900146 476.79193115 C-8.67015356 483.98690299 -11.30315812 491.18119549 -13.9375 498.375 C-14.23354126 499.18342346 -14.52958252 499.99184692 -14.83459473 500.82476807 C-17.36753525 507.74092809 -19.90281557 514.65622397 -22.44140625 521.5703125 C-24.01233718 525.84963655 -25.5794984 530.13031046 -27.14291382 534.41238403 C-28.14473078 537.15599776 -29.1476546 539.89920634 -30.15063477 542.64239502 C-30.84692455 544.54815683 -31.5416591 546.45448665 -32.23632812 548.36083984 C-33.45879862 551.70321474 -34.69272457 555.04087291 -35.9375 558.375 C-36.29118652 559.32487793 -36.64487305 560.27475586 -37.00927734 561.25341797 C-43.12321035 577.16619189 -55.18973149 588.78901817 -70.375 596.125 C-85.09282135 602.42106938 -102.31660057 602.51116547 -117.28515625 596.9140625 C-133.1486387 590.22934369 -144.80022219 579.35585997 -151.77754211 563.46136475 C-152.61065054 561.40127878 -153.41141271 559.33173704 -154.19921875 557.25390625 C-154.647314 556.0863253 -154.647314 556.0863253 -155.10446167 554.89515686 C-158.35684411 546.36855645 -161.44809604 537.78347429 -164.52877808 529.19369507 C-171.3750023 510.11186367 -178.3476147 491.07825177 -185.375 472.0625 C-194.0522655 448.57235227 -202.5994444 425.03818364 -211.0302124 401.45848083 C-213.08905439 395.71017416 -215.18551454 389.97730463 -217.3125 384.25390625 C-217.80290765 382.9237378 -218.29291714 381.59342247 -218.7824707 380.26293945 C-219.63941026 377.94083427 -220.50670226 375.62250564 -221.38745117 373.30932617 C-221.74814697 372.32552979 -222.10884277 371.3417334 -222.48046875 370.328125 C-222.79008545 369.50473633 -223.09970215 368.68134766 -223.41870117 367.83300781 C-224.82869787 361.15260936 -221.27219278 354.37452776 -218.9921875 348.19921875 C-218.38960869 346.54798256 -218.38960869 346.54798256 -217.77485657 344.86338806 C-216.4590068 341.26126489 -215.13579676 337.66189331 -213.8125 334.0625 C-212.89576588 331.55730085 -211.97944669 329.05195411 -211.0637207 326.54638672 C-208.77916227 320.29821213 -206.4882801 314.05237566 -204.19622803 307.8069458 C-202.39369552 302.89230678 -200.59675739 297.97563172 -198.80078125 293.05859375 C-195.48396077 283.97992566 -192.16094648 274.9035364 -188.83605957 265.82781982 C-186.05627736 258.239781 -183.27755658 250.65135379 -180.5 243.0625 C-180.18912445 242.21312866 -179.8782489 241.36375732 -179.55795288 240.48864746 C-174.83474275 227.58170577 -170.13091539 214.66780276 -165.4375 201.75 C-158.93124824 183.84269835 -152.40560603 165.94251166 -145.87167358 148.04529572 C-145.14175931 146.04590728 -144.41193232 144.04648701 -143.68212891 142.04705811 C-137.65934397 125.54710735 -131.62300906 109.05217778 -125.57348633 92.56201172 C-123.48814961 86.87751645 -121.40541525 81.19207365 -119.32402039 75.50613403 C-117.81774797 71.39217724 -116.30989226 67.27880184 -114.80175781 63.16552734 C-114.05113017 61.11725464 -113.301143 59.06874713 -112.55175781 57.02001953 C-108.79852547 46.76064751 -105.03348989 36.50519156 -101.1328125 26.30078125 C-100.86507019 25.58851379 -100.59732788 24.87624634 -100.32147217 24.14239502 C-94.04566528 7.89760288 -82.39537333 -3.14974835 -66.9375 -10.625 C-44.01199487 -19.95702915 -18.91583218 -16.03618734 0 0 Z " fill="#0996C7" transform="translate(825.9375,352.625)"/>
</svg>
